<svg version="1.1"
     viewBox="0.0 0.0 255.0 255.0"
     fill="none"
     stroke="none"
     stroke-linecap="square"
     stroke-miterlimit="10"
     xmlns:xlink="http://www.w3.org/1999/xlink"
     xmlns="http://www.w3.org/2000/svg">
    <clipPath id="p.0">
        <path d="m0 0l255.0 0l0 255.0l-255.0 0l0 -255.0z"
              clip-rule="nonzero" />
    </clipPath>
    <g clip-path="url(#p.0)">
        <path fill="#000000"
              fill-opacity="0.0"
              d="m0 0l255.0 0l0 255.0l-255.0 0z"
              fill-rule="evenodd" />
        <path fill="#000000"
              d="m0.003937008 127.49869l0 0c0 -70.41413 57.081932 -127.49606 127.49606 -127.49606l0 0c33.814056 0 66.24318 13.432583 90.153336 37.34273c23.910141 23.910152 37.342728 56.339275 37.342728 90.153336l0 0c0 70.41414 -57.081924 127.49606 -127.49606 127.49606l0 0c-70.41413 0 -127.49606 -57.081924 -127.49606 -127.49606z"
              fill-rule="evenodd" />
        <path fill="#915eff"
              d="m15.594488 127.49869l0 0c0 -61.786316 50.1018 -111.874016 111.90551 -111.874016l0 0c29.679184 0 58.14279 11.786694 79.12915 32.76714c20.986343 20.98045 32.776367 49.43604 32.776367 79.10687l0 0c0 61.786316 -50.101807 111.87401 -111.90552 111.87401l0 0c-61.80371 0 -111.90551 -50.087692 -111.90551 -111.87401z"
              fill-rule="evenodd" />
        <path fill="#000000"
              fill-opacity="0.0"
              d="m79.666664 -15.601049l76.00001 0l0 245.63779l-76.00001 0z"
              fill-rule="evenodd" />
        <path fill="#050816"
              d="m132.76042 36.33332l30.046875 0l-5.15625 24.265625l-30.046883 0l5.1562576 -24.265625zm-42.703133 179.75q-9.515625 0 -17.875 -3.734375l11.546875 -21.828125q4.046875 2.046875 8.15625 2.046875q4.84375 0 7.765625 -2.796875q2.9375 -2.796875 4.21875 -8.765625l22.21875 -104.53126l26.312508 0l-22.65625 106.57813q-3.2656326 15.3125 -14.015633 24.171875q-10.734375 8.859375 -25.671875 8.859375z"
              fill-rule="nonzero" />
    </g>
</svg>