<svg version="1.1"
     width="308.7612359841165"
     height="304.915625"
     viewBox="0.0 0.0 255.0 255.0"
     fill="none"
     stroke="none"
     stroke-linecap="square"
     stroke-miterlimit="10"
     xmlns:xlink="http://www.w3.org/1999/xlink"
     xmlns="http://www.w3.org/2000/svg">
    <clipPath id="p.0">
        <path d="m0 0l255.0 0l0 255.0l-255.0 0l0 -255.0z"
              clip-rule="nonzero" />
    </clipPath>
    <g clip-path="url(#p.0)">
        <path fill="#000000"
              fill-opacity="0.0"
              d="m0 0l255.0 0l0 255.0l-255.0 0z"
              fill-rule="evenodd" />
        <path fill="#ffffff"
              d="m0.007874016 127.50394l0 0c0 -70.41413 57.081932 -127.49606 127.49606 -127.49606l0 0c33.814056 0 66.24318 13.432582 90.153336 37.34273c23.910141 23.910152 37.342728 56.339275 37.342728 90.153336l0 0c0 70.41414 -57.081924 127.49606 -127.49606 127.49606l0 0c-70.41413 0 -127.49606 -57.081924 -127.49606 -127.49606z"
              fill-rule="evenodd" />
        <path fill="#45acff"
              d="m6.03937 127.4856l0 0c0 -67.07433 54.388588 -121.44882 121.480316 -121.44882l0 0c32.218582 0 63.117584 12.7954645 85.89955 35.571537c22.781982 22.776073 35.580765 53.667057 35.580765 85.87729l0 0c0 67.07433 -54.388596 121.448814 -121.480316 121.448814l0 0c-67.09172 0 -121.480316 -54.37448 -121.480316 -121.448814z"
              fill-rule="evenodd" />
        <path fill="#000000"
              fill-opacity="0.0"
              d="m79.666664 -31.60105l76.00001 0l0 302.17322l-76.00001 0z"
              fill-rule="evenodd" />
        <path fill="#ffffff"
              d="m110.36979 204.89894q-13.53125 0 -24.734375 -4.90625l8.859375 -28.21875q7.0 3.71875 12.375 3.71875q11.65625 0 11.65625 -14.453125l0 -115.03126l32.671883 0l0 117.82813q0 18.890625 -11.09375 29.984375q-11.078125 11.078125 -29.734383 11.078125z"
              fill-rule="nonzero" />
    </g>
</svg>